<?xml version="1.0" standalone="no"?>
<!DOCTYPE svg PUBLIC "-//W3C//DTD SVG 20010904//EN"
 "http://www.w3.org/TR/2001/REC-SVG-20010904/DTD/svg10.dtd">
<svg version="1.0" xmlns="http://www.w3.org/2000/svg"
 width="355.000000pt" height="295.000000pt" viewBox="0 0 355.000000 295.000000"
 preserveAspectRatio="xMidYMid meet">

<g transform="translate(0.000000,295.000000) scale(0.100000,-0.100000)"
fill="#000000" stroke="none">
<path d="M0 1475 l0 -1475 1775 0 1775 0 0 1475 0 1475 -1775 0 -1775 0 0
-1475z m1600 763 c57 -17 80 -30 73 -42 -4 -6 2 -4 12 4 10 8 16 10 12 4 -4
-7 0 -15 9 -18 10 -4 13 -2 8 7 -5 8 -2 8 9 -2 9 -7 14 -17 11 -22 -3 -5 1 -6
9 -3 8 3 18 0 23 -7 4 -8 3 -10 -4 -5 -7 4 -12 2 -12 -5 0 -6 8 -9 19 -6 15 3
18 1 14 -11 -5 -11 -3 -13 7 -7 10 6 12 4 7 -9 -6 -14 -3 -17 9 -12 12 5 15 2
10 -10 -4 -12 -2 -15 9 -11 8 4 17 1 21 -5 5 -7 2 -8 -7 -4 -10 6 -10 4 1 -6
21 -19 43 -59 36 -66 -3 -3 -6 1 -6 9 0 11 -2 11 -10 -1 -5 -8 -10 -19 -10
-25 0 -5 4 -5 8 2 12 19 31 0 38 -37 4 -27 3 -31 -5 -20 -8 11 -11 11 -11 2 0
-7 7 -15 15 -18 18 -7 20 -65 3 -82 -9 -9 -9 -12 0 -12 14 0 16 -36 2 -45 -5
-3 -7 -19 -4 -34 4 -16 1 -32 -5 -35 -6 -4 -11 -18 -11 -31 0 -13 -5 -27 -11
-31 -8 -4 -9 1 -4 16 6 20 5 21 -8 9 -11 -10 -12 -19 -5 -32 7 -14 5 -23 -6
-36 -9 -10 -13 -21 -9 -26 5 -4 4 -6 -2 -3 -5 3 -16 0 -23 -8 -8 -9 -9 -14 -2
-14 6 0 8 -5 5 -10 -4 -6 -11 -7 -17 -4 -7 5 -9 2 -6 -7 3 -9 -3 -26 -14 -40
-11 -13 -17 -19 -14 -13 3 6 -1 11 -9 11 -18 0 -19 -9 -2 -26 10 -11 8 -12
-10 -6 -14 4 -23 2 -23 -4 0 -6 5 -11 10 -11 8 0 8 -4 0 -12 -5 -7 -19 -24
-31 -38 -18 -22 -20 -22 -16 -5 3 11 8 29 13 39 5 14 4 17 -4 12 -7 -4 -12
-14 -12 -22 0 -8 -9 -14 -20 -14 -12 0 -21 -7 -22 -17 -2 -33 -4 -38 -11 -51
-5 -7 -13 -9 -19 -6 -7 4 -7 0 0 -12 11 -23 6 -41 -21 -69 -10 -11 -30 -35
-44 -53 -23 -29 -28 -31 -42 -19 -23 20 -47 11 -29 -11 10 -12 10 -14 1 -8 -7
4 -13 3 -13 -3 0 -5 5 -13 11 -16 6 -5 4 -12 -8 -22 -10 -8 -11 -11 -4 -7 16
8 -23 -51 -39 -61 -33 -20 10 -25 219 -25 237 0 254 -3 230 -41 -5 -8 -9 -21
-9 -29 0 -13 1 -13 10 0 7 10 9 -20 7 -92 l-2 -108 -386 0 c-331 0 -388 2
-399 15 -7 8 -17 15 -23 15 -6 0 -2 -7 9 -15 17 -13 17 -14 2 -15 -10 0 -18 2
-18 4 0 2 -3 11 -6 20 -4 11 -1 16 10 16 9 0 16 5 16 11 0 5 5 7 10 4 6 -3 10
-2 10 4 0 15 -18 23 -25 11 -17 -28 -25 -1 -25 84 0 101 5 126 25 126 7 0 12
8 11 17 0 9 15 27 34 40 56 37 64 45 50 53 -8 5 -7 9 4 13 8 3 17 1 20 -6 2
-7 5 -4 5 5 2 31 33 86 47 81 7 -2 18 6 24 19 11 22 10 22 -4 4 -9 -11 -16
-16 -16 -11 0 14 31 44 43 41 7 -2 9 -1 5 1 -5 3 -8 9 -8 13 0 11 41 9 55 -1
7 -5 11 2 10 19 0 15 7 38 17 51 15 19 16 26 6 34 -10 6 -9 7 4 4 9 -3 24 3
33 13 10 11 22 17 27 14 5 -3 4 3 -3 14 -11 18 -8 25 29 64 23 23 42 50 43 58
0 10 3 9 9 -5 6 -13 9 -15 9 -5 1 13 2 13 12 0 8 -12 10 -9 6 12 -4 29 7 57
20 45 4 -5 1 -13 -7 -18 -12 -9 -12 -10 3 -5 10 3 20 6 23 6 2 0 0 7 -3 17 -4
10 -2 14 4 10 6 -4 10 7 10 26 1 18 -1 26 -4 20 -3 -7 -9 -13 -15 -13 -6 0 -5
6 2 15 9 11 16 13 24 5 13 -13 36 -13 36 1 0 5 -4 8 -9 4 -5 -3 -13 4 -16 16
-6 17 -9 19 -16 8 -5 -8 -9 -9 -9 -3 0 6 7 17 15 24 8 7 13 16 10 20 -2 4 -1
27 4 51 8 42 9 42 10 10 1 -42 6 -38 15 13 6 33 5 38 -9 32 -13 -5 -15 -2 -10
14 4 11 2 20 -4 20 -6 0 -11 9 -11 20 0 10 -8 24 -17 29 -11 6 -13 11 -5 11 7
0 10 5 7 10 -4 6 -10 8 -15 5 -5 -3 -20 0 -32 7 -13 7 -26 12 -30 13 -3 0 -10
3 -14 8 -4 4 -26 6 -48 6 -38 -1 -39 -2 -11 -8 24 -5 26 -8 13 -13 -10 -4 -26
-5 -35 -1 -10 3 -15 3 -11 -1 3 -4 -5 -21 -19 -36 -14 -16 -24 -31 -23 -35 1
-3 -6 -17 -14 -30 -10 -15 -14 -34 -10 -49 8 -35 -3 -61 -26 -63 -14 -1 -20 5
-21 20 l0 22 -11 -22 c-8 -17 -20 -23 -44 -23 -18 0 -40 -3 -50 -7 -12 -4 -15
-3 -10 5 7 12 1 15 -29 15 -40 0 -48 -6 -20 -13 27 -7 26 -8 -12 -7 -36 2 -40
4 -32 20 12 21 5 22 -15 1 -9 -8 -16 -11 -16 -5 0 5 5 13 10 16 6 3 10 11 10
16 0 6 -4 7 -10 4 -11 -7 -13 13 -4 67 4 21 10 35 15 33 4 -3 11 0 15 6 4 8 3
9 -4 5 -21 -13 -13 37 10 61 15 17 17 23 7 23 -10 1 -9 4 4 11 9 6 15 14 12
20 -8 12 20 51 30 41 5 -4 5 -1 1 6 -9 16 12 44 27 35 5 -3 7 -1 4 4 -7 10 55
73 71 73 4 0 -4 -9 -18 -20 -14 -11 -20 -20 -13 -20 6 0 15 5 18 10 4 6 15 8
25 5 12 -4 22 1 29 12 9 16 12 16 21 3 6 -9 10 -10 10 -3 0 6 -4 14 -9 17 -13
8 -42 -4 -35 -15 3 -5 0 -9 -5 -9 -6 0 -11 6 -11 14 0 19 61 46 88 39 14 -3
22 -1 22 7 0 8 9 10 28 6 20 -5 23 -4 12 4 -20 13 133 12 180 -2z m-622 -152
c1 -85 -2 -154 -7 -159 -5 -5 -101 -9 -228 -8 -120 0 -226 -2 -235 -5 -16 -5
-18 -21 -18 -140 l0 -134 178 0 c125 0 182 -4 190 -12 18 -18 17 -272 -1 -287
-8 -6 -80 -12 -188 -13 l-174 -3 -5 -280 c-3 -154 -9 -286 -13 -292 -6 -10
-49 -13 -158 -13 l-149 0 0 743 c0 409 3 747 7 750 4 4 185 6 402 5 l396 -3 3
-149z m1524 134 c210 -53 343 -188 409 -417 31 -108 45 -301 31 -440 -25 -248
-101 -411 -236 -508 -134 -95 -221 -115 -505 -115 -194 0 -211 1 -211 18 -3
344 2 1467 6 1473 3 5 101 9 217 9 176 0 225 -4 289 -20z m-922 -574 c0 -2 -7
-6 -15 -10 -8 -3 -15 -1 -15 4 0 6 7 10 15 10 8 0 15 -2 15 -4z m90 -280 c0
-8 -7 -21 -15 -29 -8 -8 -11 -17 -8 -21 4 -3 1 -6 -5 -6 -15 0 -16 17 -2 25 6
4 7 11 4 17 -4 6 0 14 7 19 18 11 19 11 19 -5z m-320 -37 c0 -6 -4 -7 -10 -4
-5 3 -10 11 -10 16 0 6 5 7 10 4 6 -3 10 -11 10 -16z"/>
<path d="M1453 2233 c9 -2 23 -2 30 0 6 3 -1 5 -18 5 -16 0 -22 -2 -12 -5z"/>
<path d="M1618 2213 c7 -3 16 -2 19 1 4 3 -2 6 -13 5 -11 0 -14 -3 -6 -6z"/>
<path d="M1690 2166 c0 -2 7 -7 16 -10 8 -3 12 -2 9 4 -6 10 -25 14 -25 6z"/>
<path d="M1787 2069 c7 -7 15 -10 18 -7 3 3 -2 9 -12 12 -14 6 -15 5 -6 -5z"/>
<path d="M1148 2033 c7 -3 16 -2 19 1 4 3 -2 6 -13 5 -11 0 -14 -3 -6 -6z"/>
<path d="M1553 1979 c11 -7 23 -7 28 -2 5 5 -3 9 -19 11 -24 1 -25 0 -9 -9z"/>
<path d="M1375 1970 c-3 -5 -1 -10 4 -10 6 0 11 5 11 10 0 6 -2 10 -4 10 -3 0
-8 -4 -11 -10z"/>
<path d="M1862 1895 c0 -16 2 -22 5 -12 2 9 2 23 0 30 -3 6 -5 -1 -5 -18z"/>
<path d="M1761 1894 c0 -11 3 -14 6 -6 3 7 2 16 -1 19 -3 4 -6 -2 -5 -13z"/>
<path d="M1892 1865 c0 -16 2 -22 5 -12 2 9 2 23 0 30 -3 6 -5 -1 -5 -18z"/>
<path d="M1076 1855 c-3 -9 -6 -22 -5 -28 0 -7 5 -1 10 12 5 13 8 26 5 28 -2
2 -6 -3 -10 -12z"/>
<path d="M1300 1839 c0 -5 5 -7 10 -4 6 3 10 8 10 11 0 2 -4 4 -10 4 -5 0 -10
-5 -10 -11z"/>
<path d="M1331 1814 c0 -11 3 -14 6 -6 3 7 2 16 -1 19 -3 4 -6 -2 -5 -13z"/>
<path d="M1218 1773 c12 -2 30 -2 40 0 9 3 -1 5 -23 4 -22 0 -30 -2 -17 -4z"/>
<path d="M1655 1770 c-3 -5 1 -10 9 -10 9 0 16 5 16 10 0 6 -4 10 -9 10 -6 0
-13 -4 -16 -10z"/>
<path d="M1873 1725 c-7 -8 -9 -16 -4 -19 5 -3 12 1 15 10 8 22 4 25 -11 9z"/>
<path d="M1795 1680 c4 -6 11 -8 16 -5 14 9 11 15 -7 15 -8 0 -12 -5 -9 -10z"/>
<path d="M1789 1628 c17 -23 51 -23 51 -2 0 14 -3 14 -15 4 -12 -10 -18 -10
-32 1 -16 13 -17 12 -4 -3z"/>
<path d="M1700 1580 c0 -5 5 -10 10 -10 6 0 10 5 10 10 0 6 -4 10 -10 10 -5 0
-10 -4 -10 -10z"/>
<path d="M1765 1580 c-3 -5 -2 -10 4 -10 5 0 13 5 16 10 3 6 2 10 -4 10 -5 0
-13 -4 -16 -10z"/>
<path d="M1774 1545 c-4 -8 -10 -12 -15 -9 -5 3 -9 1 -9 -4 0 -5 8 -12 18 -14
12 -4 17 2 18 19 2 26 -4 30 -12 8z"/>
<path d="M1584 1539 c-3 -6 -1 -16 5 -22 8 -8 11 -5 11 11 0 24 -5 28 -16 11z"/>
<path d="M1496 1525 c-3 -8 -1 -15 3 -15 5 0 11 7 15 15 3 8 1 15 -3 15 -5 0
-11 -7 -15 -15z"/>
<path d="M1630 1500 c0 -5 5 -10 10 -10 6 0 10 5 10 10 0 6 -4 10 -10 10 -5 0
-10 -4 -10 -10z"/>
<path d="M1708 1503 c7 -3 16 -2 19 1 4 3 -2 6 -13 5 -11 0 -14 -3 -6 -6z"/>
<path d="M1456 1484 c-18 -12 -18 -14 -1 -31 17 -16 17 -16 11 5 -8 23 9 32
17 10 2 -7 7 -11 10 -8 3 3 0 12 -7 21 -10 14 -14 15 -30 3z"/>
<path d="M1485 1421 c-3 -5 -1 -12 4 -15 5 -3 11 1 15 9 6 16 -9 21 -19 6z"/>
<path d="M1520 1404 c0 -8 5 -12 10 -9 6 3 10 10 10 16 0 5 -4 9 -10 9 -5 0
-10 -7 -10 -16z"/>
<path d="M1587 1383 c-4 -3 -7 -13 -7 -22 1 -13 3 -13 11 2 11 19 8 33 -4 20z"/>
<path d="M1412 1350 c13 -38 28 -48 28 -18 0 26 -10 42 -27 45 -9 2 -9 -5 -1
-27z"/>
<path d="M1586 1285 c-11 -8 -16 -15 -12 -15 4 0 0 -7 -8 -16 -9 -8 -16 -20
-16 -25 0 -13 21 8 44 44 21 31 19 33 -8 12z"/>
<path d="M1458 1253 c-24 -6 -23 -23 2 -23 11 0 20 7 20 15 0 8 -1 14 -2 14
-2 -1 -11 -3 -20 -6z"/>
<path d="M1523 1204 c-6 -13 -7 -24 -3 -24 9 0 25 39 18 45 -2 2 -8 -7 -15
-21z"/>
<path d="M1234 1211 c4 -5 1 -12 -4 -14 -6 -3 -5 -4 2 -3 15 3 23 26 8 26 -6
0 -9 -4 -6 -9z"/>
<path d="M1197 1109 c7 -7 15 -10 18 -7 3 3 -2 9 -12 12 -14 6 -15 5 -6 -5z"/>
<path d="M1400 1078 c0 -23 3 -29 9 -19 8 12 4 51 -5 51 -2 0 -4 -15 -4 -32z"/>
<path d="M1104 1066 c-3 -8 -1 -23 5 -33 8 -15 10 -12 8 14 -2 36 -5 40 -13
19z"/>
<path d="M1141 1054 c0 -11 3 -14 6 -6 3 7 2 16 -1 19 -3 4 -6 -2 -5 -13z"/>
<path d="M1307 1012 c1 -8 3 -16 3 -18 0 -2 5 -4 10 -4 6 0 10 10 10 23 0 16
-3 18 -9 8 -5 -7 -11 -9 -13 -5 -3 5 -3 3 -1 -4z"/>
<path d="M1070 1009 c0 -5 5 -7 10 -4 6 3 10 8 10 11 0 2 -4 4 -10 4 -5 0 -10
-5 -10 -11z"/>
<path d="M1688 1003 c7 -3 16 -2 19 1 4 3 -2 6 -13 5 -11 0 -14 -3 -6 -6z"/>
<path d="M1730 1006 c0 -9 40 -13 46 -5 3 5 -6 9 -20 9 -14 0 -26 -2 -26 -4z"/>
<path d="M1835 1000 c3 -5 10 -10 16 -10 5 0 9 5 9 10 0 6 -7 10 -16 10 -8 0
-12 -4 -9 -10z"/>
<path d="M1470 985 c7 -8 17 -12 22 -9 6 4 5 10 -3 15 -22 14 -33 10 -19 -6z"/>
<path d="M1580 990 c-11 -7 -3 -10 30 -9 34 0 40 2 25 9 -27 12 -37 12 -55 0z"/>
<path d="M1520 979 c0 -5 5 -7 10 -4 6 3 10 8 10 11 0 2 -4 4 -10 4 -5 0 -10
-5 -10 -11z"/>
<path d="M1408 973 c6 -2 18 -2 25 0 6 3 1 5 -13 5 -14 0 -19 -2 -12 -5z"/>
<path d="M1128 943 c7 -3 16 -2 19 1 4 3 -2 6 -13 5 -11 0 -14 -3 -6 -6z"/>
<path d="M1770 920 c0 -5 5 -10 11 -10 5 0 7 5 4 10 -3 6 -8 10 -11 10 -2 0
-4 -4 -4 -10z"/>
<path d="M1071 904 c0 -11 3 -14 6 -6 3 7 2 16 -1 19 -3 4 -6 -2 -5 -13z"/>
<path d="M1110 870 c0 -5 5 -10 11 -10 5 0 7 5 4 10 -3 6 -8 10 -11 10 -2 0
-4 -4 -4 -10z"/>
<path d="M1113 781 c0 -11 5 -18 9 -15 4 3 5 11 1 19 -7 21 -12 19 -10 -4z"/>
<path d="M1158 763 c7 -3 16 -2 19 1 4 3 -2 6 -13 5 -11 0 -14 -3 -6 -6z"/>
<path d="M1298 763 c12 -2 32 -2 45 0 12 2 2 4 -23 4 -25 0 -35 -2 -22 -4z"/>
<path d="M1698 763 c6 -2 18 -2 25 0 6 3 1 5 -13 5 -14 0 -19 -2 -12 -5z"/>
<path d="M2290 1484 l0 -447 78 7 c144 13 214 79 251 236 20 85 11 399 -13
465 -46 125 -127 185 -250 185 l-66 0 0 -446z"/>
</g>
</svg>
